<mxfile host="app.diagrams.net" modified="2023-03-07T18:51:27.748Z" agent="5.0 (X11; Ubuntu)" etag="4d3iX_MnOjWl-pm8pva6" version="21.0.2" type="github">
  <diagram name="Page-1" id="e7e014a7-5840-1c2e-5031-d8a46d1fe8dd">
    <mxGraphModel dx="1600" dy="795" grid="1" gridSize="10" guides="1" tooltips="1" connect="1" arrows="1" fold="1" page="1" pageScale="1" pageWidth="1169" pageHeight="826" background="none" math="0" shadow="0">
      <root>
        <mxCell id="0" />
        <mxCell id="1" parent="0" />
        <mxCell id="vEBMCDPOKeMJmc6v6zJ3-38" style="edgeStyle=orthogonalEdgeStyle;rounded=0;orthogonalLoop=1;jettySize=auto;html=1;" edge="1" parent="1" source="vEBMCDPOKeMJmc6v6zJ3-49" target="vEBMCDPOKeMJmc6v6zJ3-65">
          <mxGeometry relative="1" as="geometry" />
        </mxCell>
        <mxCell id="vEBMCDPOKeMJmc6v6zJ3-39" value="" style="edgeStyle=orthogonalEdgeStyle;rounded=0;orthogonalLoop=1;jettySize=auto;html=1;" edge="1" parent="1" source="vEBMCDPOKeMJmc6v6zJ3-66" target="vEBMCDPOKeMJmc6v6zJ3-74">
          <mxGeometry relative="1" as="geometry" />
        </mxCell>
        <mxCell id="vEBMCDPOKeMJmc6v6zJ3-40" value="" style="edgeStyle=orthogonalEdgeStyle;rounded=0;orthogonalLoop=1;jettySize=auto;html=1;" edge="1" parent="1" source="vEBMCDPOKeMJmc6v6zJ3-41" target="vEBMCDPOKeMJmc6v6zJ3-44">
          <mxGeometry relative="1" as="geometry" />
        </mxCell>
        <mxCell id="vEBMCDPOKeMJmc6v6zJ3-41" value="" style="ellipse;shape=startState;fillColor=#000000;strokeColor=#ff0000;" vertex="1" parent="1">
          <mxGeometry x="264.5" y="168" width="30" height="30" as="geometry" />
        </mxCell>
        <mxCell id="vEBMCDPOKeMJmc6v6zJ3-42" value="" style="edgeStyle=orthogonalEdgeStyle;rounded=0;orthogonalLoop=1;jettySize=auto;html=1;" edge="1" parent="1" source="vEBMCDPOKeMJmc6v6zJ3-44" target="vEBMCDPOKeMJmc6v6zJ3-47">
          <mxGeometry relative="1" as="geometry" />
        </mxCell>
        <mxCell id="vEBMCDPOKeMJmc6v6zJ3-43" value="" style="edgeStyle=orthogonalEdgeStyle;rounded=0;orthogonalLoop=1;jettySize=auto;html=1;" edge="1" parent="1" source="vEBMCDPOKeMJmc6v6zJ3-44" target="vEBMCDPOKeMJmc6v6zJ3-55">
          <mxGeometry relative="1" as="geometry" />
        </mxCell>
        <mxCell id="vEBMCDPOKeMJmc6v6zJ3-44" value="Signup" style="" vertex="1" parent="1">
          <mxGeometry x="224.5" y="238" width="110" height="50" as="geometry" />
        </mxCell>
        <mxCell id="vEBMCDPOKeMJmc6v6zJ3-45" value="" style="edgeStyle=orthogonalEdgeStyle;rounded=0;orthogonalLoop=1;jettySize=auto;html=1;" edge="1" parent="1" source="vEBMCDPOKeMJmc6v6zJ3-47" target="vEBMCDPOKeMJmc6v6zJ3-49">
          <mxGeometry relative="1" as="geometry" />
        </mxCell>
        <mxCell id="vEBMCDPOKeMJmc6v6zJ3-46" value="" style="edgeStyle=orthogonalEdgeStyle;rounded=0;orthogonalLoop=1;jettySize=auto;html=1;" edge="1" parent="1" source="vEBMCDPOKeMJmc6v6zJ3-47" target="vEBMCDPOKeMJmc6v6zJ3-53">
          <mxGeometry relative="1" as="geometry" />
        </mxCell>
        <mxCell id="vEBMCDPOKeMJmc6v6zJ3-47" value="Login" style="" vertex="1" parent="1">
          <mxGeometry x="224.5" y="348" width="110" height="50" as="geometry" />
        </mxCell>
        <mxCell id="vEBMCDPOKeMJmc6v6zJ3-48" value="" style="edgeStyle=orthogonalEdgeStyle;rounded=0;orthogonalLoop=1;jettySize=auto;html=1;" edge="1" parent="1" source="vEBMCDPOKeMJmc6v6zJ3-49" target="vEBMCDPOKeMJmc6v6zJ3-51">
          <mxGeometry relative="1" as="geometry" />
        </mxCell>
        <mxCell id="vEBMCDPOKeMJmc6v6zJ3-49" value="Verify Login" style="" vertex="1" parent="1">
          <mxGeometry x="224.5" y="453" width="110" height="50" as="geometry" />
        </mxCell>
        <mxCell id="vEBMCDPOKeMJmc6v6zJ3-50" style="edgeStyle=orthogonalEdgeStyle;rounded=0;orthogonalLoop=1;jettySize=auto;html=1;exitX=0;exitY=0.5;exitDx=0;exitDy=0;entryX=-0.005;entryY=0.56;entryDx=0;entryDy=0;entryPerimeter=0;" edge="1" parent="1" source="vEBMCDPOKeMJmc6v6zJ3-51" target="vEBMCDPOKeMJmc6v6zJ3-49">
          <mxGeometry relative="1" as="geometry" />
        </mxCell>
        <mxCell id="vEBMCDPOKeMJmc6v6zJ3-51" value="&lt;div&gt;Login&lt;/div&gt;&lt;div&gt;NOT&lt;/div&gt;&lt;div&gt;Verified&lt;br&gt;&lt;/div&gt;" style="rhombus;whiteSpace=wrap;html=1;fillColor=rgb(255, 255, 255);" vertex="1" parent="1">
          <mxGeometry x="239.5" y="568" width="80" height="80" as="geometry" />
        </mxCell>
        <mxCell id="vEBMCDPOKeMJmc6v6zJ3-52" style="edgeStyle=orthogonalEdgeStyle;rounded=0;orthogonalLoop=1;jettySize=auto;html=1;exitX=0.5;exitY=0;exitDx=0;exitDy=0;entryX=0.705;entryY=0.02;entryDx=0;entryDy=0;entryPerimeter=0;" edge="1" parent="1" source="vEBMCDPOKeMJmc6v6zJ3-53" target="vEBMCDPOKeMJmc6v6zJ3-47">
          <mxGeometry relative="1" as="geometry" />
        </mxCell>
        <mxCell id="vEBMCDPOKeMJmc6v6zJ3-53" value="&lt;div&gt;Login&lt;/div&gt;&lt;div&gt;Failed&lt;br&gt;&lt;/div&gt;" style="rhombus;whiteSpace=wrap;html=1;fillColor=rgb(255, 255, 255);" vertex="1" parent="1">
          <mxGeometry x="350" y="333" width="80" height="80" as="geometry" />
        </mxCell>
        <mxCell id="vEBMCDPOKeMJmc6v6zJ3-54" style="edgeStyle=orthogonalEdgeStyle;rounded=0;orthogonalLoop=1;jettySize=auto;html=1;exitX=0.5;exitY=0;exitDx=0;exitDy=0;entryX=0.741;entryY=0;entryDx=0;entryDy=0;entryPerimeter=0;" edge="1" parent="1" source="vEBMCDPOKeMJmc6v6zJ3-55" target="vEBMCDPOKeMJmc6v6zJ3-44">
          <mxGeometry relative="1" as="geometry" />
        </mxCell>
        <mxCell id="vEBMCDPOKeMJmc6v6zJ3-55" value="&lt;div&gt;Signup&lt;/div&gt;&lt;div&gt;Failed&lt;br&gt;&lt;/div&gt;" style="rhombus;whiteSpace=wrap;html=1;fillColor=rgb(255, 255, 255);" vertex="1" parent="1">
          <mxGeometry x="350" y="223" width="80" height="80" as="geometry" />
        </mxCell>
        <mxCell id="vEBMCDPOKeMJmc6v6zJ3-56" value="" style="edgeStyle=orthogonalEdgeStyle;rounded=0;orthogonalLoop=1;jettySize=auto;html=1;" edge="1" parent="1" source="vEBMCDPOKeMJmc6v6zJ3-57" target="vEBMCDPOKeMJmc6v6zJ3-60">
          <mxGeometry relative="1" as="geometry" />
        </mxCell>
        <mxCell id="vEBMCDPOKeMJmc6v6zJ3-57" value="" style="ellipse;shape=startState;fillColor=#000000;strokeColor=#ff0000;" vertex="1" parent="1">
          <mxGeometry x="510" y="168" width="30" height="30" as="geometry" />
        </mxCell>
        <mxCell id="vEBMCDPOKeMJmc6v6zJ3-58" value="" style="edgeStyle=orthogonalEdgeStyle;rounded=0;orthogonalLoop=1;jettySize=auto;html=1;" edge="1" parent="1" source="vEBMCDPOKeMJmc6v6zJ3-60" target="vEBMCDPOKeMJmc6v6zJ3-68">
          <mxGeometry relative="1" as="geometry" />
        </mxCell>
        <mxCell id="vEBMCDPOKeMJmc6v6zJ3-59" value="" style="edgeStyle=orthogonalEdgeStyle;rounded=0;orthogonalLoop=1;jettySize=auto;html=1;" edge="1" parent="1" source="vEBMCDPOKeMJmc6v6zJ3-60" target="vEBMCDPOKeMJmc6v6zJ3-63">
          <mxGeometry relative="1" as="geometry" />
        </mxCell>
        <mxCell id="vEBMCDPOKeMJmc6v6zJ3-60" value="Login" style="" vertex="1" parent="1">
          <mxGeometry x="470" y="238" width="110" height="50" as="geometry" />
        </mxCell>
        <mxCell id="vEBMCDPOKeMJmc6v6zJ3-61" value="" style="edgeStyle=orthogonalEdgeStyle;rounded=0;orthogonalLoop=1;jettySize=auto;html=1;" edge="1" parent="1" source="vEBMCDPOKeMJmc6v6zJ3-63" target="vEBMCDPOKeMJmc6v6zJ3-70">
          <mxGeometry relative="1" as="geometry" />
        </mxCell>
        <mxCell id="vEBMCDPOKeMJmc6v6zJ3-62" value="" style="edgeStyle=orthogonalEdgeStyle;rounded=0;orthogonalLoop=1;jettySize=auto;html=1;" edge="1" parent="1" source="vEBMCDPOKeMJmc6v6zJ3-63" target="vEBMCDPOKeMJmc6v6zJ3-65">
          <mxGeometry relative="1" as="geometry" />
        </mxCell>
        <mxCell id="vEBMCDPOKeMJmc6v6zJ3-63" value="Verify Login" style="" vertex="1" parent="1">
          <mxGeometry x="470" y="348" width="110" height="50" as="geometry" />
        </mxCell>
        <mxCell id="vEBMCDPOKeMJmc6v6zJ3-64" value="" style="edgeStyle=orthogonalEdgeStyle;rounded=0;orthogonalLoop=1;jettySize=auto;html=1;" edge="1" parent="1" source="vEBMCDPOKeMJmc6v6zJ3-65" target="vEBMCDPOKeMJmc6v6zJ3-66">
          <mxGeometry relative="1" as="geometry" />
        </mxCell>
        <mxCell id="vEBMCDPOKeMJmc6v6zJ3-65" value="Look for item" style="" vertex="1" parent="1">
          <mxGeometry x="470" y="453" width="110" height="50" as="geometry" />
        </mxCell>
        <mxCell id="vEBMCDPOKeMJmc6v6zJ3-66" value="View Item&#xa;Descriptions&#xa;" style="fillColor=rgb(255, 255, 255);strokeColor=rgb(0, 0, 0);fontColor=rgb(0, 0, 0);" vertex="1" parent="1">
          <mxGeometry x="605.5" y="453" width="110" height="50" as="geometry" />
        </mxCell>
        <mxCell id="vEBMCDPOKeMJmc6v6zJ3-67" style="edgeStyle=orthogonalEdgeStyle;rounded=0;orthogonalLoop=1;jettySize=auto;html=1;exitX=0.5;exitY=0;exitDx=0;exitDy=0;entryX=0.723;entryY=0.02;entryDx=0;entryDy=0;entryPerimeter=0;" edge="1" parent="1" source="vEBMCDPOKeMJmc6v6zJ3-68" target="vEBMCDPOKeMJmc6v6zJ3-60">
          <mxGeometry relative="1" as="geometry" />
        </mxCell>
        <mxCell id="vEBMCDPOKeMJmc6v6zJ3-68" value="&lt;div&gt;Login&lt;/div&gt;&lt;div&gt;Failed&lt;br&gt;&lt;/div&gt;" style="rhombus;whiteSpace=wrap;html=1;fillColor=rgb(255, 255, 255);" vertex="1" parent="1">
          <mxGeometry x="620.5" y="223" width="80" height="80" as="geometry" />
        </mxCell>
        <mxCell id="vEBMCDPOKeMJmc6v6zJ3-69" style="edgeStyle=orthogonalEdgeStyle;rounded=0;orthogonalLoop=1;jettySize=auto;html=1;exitX=0.5;exitY=0;exitDx=0;exitDy=0;entryX=0.686;entryY=0;entryDx=0;entryDy=0;entryPerimeter=0;" edge="1" parent="1" source="vEBMCDPOKeMJmc6v6zJ3-70" target="vEBMCDPOKeMJmc6v6zJ3-63">
          <mxGeometry relative="1" as="geometry" />
        </mxCell>
        <mxCell id="vEBMCDPOKeMJmc6v6zJ3-70" value="&lt;div&gt;Login&lt;/div&gt;&lt;div&gt;NOT&lt;br&gt;&lt;/div&gt;&lt;div&gt;Verified&lt;br&gt;&lt;/div&gt;" style="rhombus;whiteSpace=wrap;html=1;fillColor=rgb(255, 255, 255);" vertex="1" parent="1">
          <mxGeometry x="620.5" y="333" width="80" height="80" as="geometry" />
        </mxCell>
        <mxCell id="vEBMCDPOKeMJmc6v6zJ3-71" value="" style="ellipse;shape=endState;fillColor=#000000;strokeColor=#ff0000" vertex="1" parent="1">
          <mxGeometry x="995" y="620" width="30" height="30" as="geometry" />
        </mxCell>
        <mxCell id="vEBMCDPOKeMJmc6v6zJ3-72" value="" style="edgeStyle=orthogonalEdgeStyle;rounded=0;orthogonalLoop=1;jettySize=auto;html=1;" edge="1" parent="1" source="vEBMCDPOKeMJmc6v6zJ3-74" target="vEBMCDPOKeMJmc6v6zJ3-76">
          <mxGeometry relative="1" as="geometry" />
        </mxCell>
        <mxCell id="vEBMCDPOKeMJmc6v6zJ3-73" value="" style="edgeStyle=orthogonalEdgeStyle;rounded=0;orthogonalLoop=1;jettySize=auto;html=1;" edge="1" parent="1" source="vEBMCDPOKeMJmc6v6zJ3-74" target="vEBMCDPOKeMJmc6v6zJ3-78">
          <mxGeometry relative="1" as="geometry" />
        </mxCell>
        <mxCell id="vEBMCDPOKeMJmc6v6zJ3-74" value="Verify Prices" style="fillColor=rgb(255, 255, 255);strokeColor=rgb(0, 0, 0);fontColor=rgb(0, 0, 0);" vertex="1" parent="1">
          <mxGeometry x="790" y="453" width="110" height="50" as="geometry" />
        </mxCell>
        <mxCell id="vEBMCDPOKeMJmc6v6zJ3-75" value="Yes" style="edgeStyle=orthogonalEdgeStyle;rounded=0;orthogonalLoop=1;jettySize=auto;html=1;" edge="1" parent="1" source="vEBMCDPOKeMJmc6v6zJ3-76" target="vEBMCDPOKeMJmc6v6zJ3-71">
          <mxGeometry relative="1" as="geometry" />
        </mxCell>
        <mxCell id="vEBMCDPOKeMJmc6v6zJ3-76" value="Purchase?" style="rhombus;whiteSpace=wrap;html=1;fillColor=rgb(255, 255, 255);" vertex="1" parent="1">
          <mxGeometry x="970" y="438" width="80" height="80" as="geometry" />
        </mxCell>
        <mxCell id="vEBMCDPOKeMJmc6v6zJ3-77" value="" style="edgeStyle=orthogonalEdgeStyle;rounded=0;orthogonalLoop=1;jettySize=auto;html=1;" edge="1" parent="1" source="vEBMCDPOKeMJmc6v6zJ3-78" target="vEBMCDPOKeMJmc6v6zJ3-81">
          <mxGeometry relative="1" as="geometry" />
        </mxCell>
        <mxCell id="vEBMCDPOKeMJmc6v6zJ3-78" value="Compare Prices&#xa;from Different&#xa;Sellers&#xa;" style="fillColor=rgb(255, 255, 255);strokeColor=rgb(0, 0, 0);fontColor=rgb(0, 0, 0);" vertex="1" parent="1">
          <mxGeometry x="790" y="308" width="110" height="65" as="geometry" />
        </mxCell>
        <mxCell id="vEBMCDPOKeMJmc6v6zJ3-79" value="YES" style="edgeStyle=orthogonalEdgeStyle;rounded=0;orthogonalLoop=1;jettySize=auto;html=1;exitX=0.5;exitY=1;exitDx=0;exitDy=0;entryX=1;entryY=0.5;entryDx=0;entryDy=0;" edge="1" parent="1" source="vEBMCDPOKeMJmc6v6zJ3-81" target="vEBMCDPOKeMJmc6v6zJ3-76">
          <mxGeometry relative="1" as="geometry" />
        </mxCell>
        <mxCell id="vEBMCDPOKeMJmc6v6zJ3-80" value="NO" style="edgeStyle=orthogonalEdgeStyle;rounded=0;orthogonalLoop=1;jettySize=auto;html=1;exitX=0.5;exitY=0;exitDx=0;exitDy=0;entryX=0;entryY=0.14;entryDx=0;entryDy=0;entryPerimeter=0;" edge="1" parent="1" source="vEBMCDPOKeMJmc6v6zJ3-81" target="vEBMCDPOKeMJmc6v6zJ3-74">
          <mxGeometry relative="1" as="geometry">
            <mxPoint x="750" y="460" as="targetPoint" />
            <Array as="points">
              <mxPoint x="1010" y="281" />
              <mxPoint x="750" y="281" />
              <mxPoint x="750" y="460" />
            </Array>
          </mxGeometry>
        </mxCell>
        <mxCell id="vEBMCDPOKeMJmc6v6zJ3-81" value="&lt;div&gt;Is Price&lt;/div&gt;&lt;div&gt;Better?&lt;br&gt;&lt;/div&gt;" style="rhombus;whiteSpace=wrap;html=1;fillColor=rgb(255, 255, 255);" vertex="1" parent="1">
          <mxGeometry x="970" y="300.5" width="80" height="80" as="geometry" />
        </mxCell>
        <mxCell id="vEBMCDPOKeMJmc6v6zJ3-82" value="NO" style="edgeStyle=orthogonalEdgeStyle;rounded=0;orthogonalLoop=1;jettySize=auto;html=1;exitX=0.5;exitY=0;exitDx=0;exitDy=0;entryX=0.741;entryY=-0.02;entryDx=0;entryDy=0;entryPerimeter=0;" edge="1" parent="1" source="vEBMCDPOKeMJmc6v6zJ3-76" target="vEBMCDPOKeMJmc6v6zJ3-65">
          <mxGeometry relative="1" as="geometry" />
        </mxCell>
      </root>
    </mxGraphModel>
  </diagram>
</mxfile>
